<?xml version="1.0" standalone="no"?>
<!DOCTYPE svg PUBLIC "-//W3C//DTD SVG 20010904//EN"
 "http://www.w3.org/TR/2001/REC-SVG-20010904/DTD/svg10.dtd">
<svg version="1.0" xmlns="http://www.w3.org/2000/svg"
 width="1000.000000pt" height="1000.000000pt" viewBox="0 0 1000.000000 1000.000000"
 preserveAspectRatio="xMidYMid meet">
<metadata>
Created by potrace 1.14, written by Peter Selinger 2001-2017
</metadata>
<g transform="translate(0.000000,1000.000000) scale(0.100000,-0.100000)"
fill="#000000" stroke="none">
<path d="M3180 9264 c-46 -9 -204 -93 -275 -146 -38 -29 -114 -97 -167 -150
-182 -183 -519 -573 -554 -639 -8 -16 -19 -29 -24 -29 -6 0 -35 20 -64 44 -30
24 -83 60 -119 80 -59 33 -191 87 -206 84 -3 -1 -37 2 -76 5 -63 7 -148 0
-230 -19 -16 -3 -67 -23 -111 -44 -281 -130 -544 -446 -791 -950 -190 -388
-232 -532 -173 -596 27 -29 95 -63 132 -66 48 -3 106 22 148 64 42 42 63 80
95 173 9 28 23 64 31 82 8 17 14 36 14 42 0 6 4 19 10 29 5 9 25 55 44 102
247 614 525 957 807 995 101 14 255 -42 354 -128 l47 -42 -54 -80 c-232 -346
-618 -1031 -676 -1200 -29 -85 -44 -181 -37 -227 8 -43 46 -95 82 -109 l23 -8
-22 -53 c-49 -121 -140 -403 -173 -538 -209 -862 -128 -1749 234 -2549 259
-573 687 -1107 1197 -1493 890 -674 2040 -935 3132 -710 50 11 92 18 92 16 0
-8 -59 -95 -112 -165 -57 -75 -211 -231 -261 -264 -58 -38 -7 -63 58 -29 17 8
77 40 135 71 102 54 126 68 293 167 43 25 80 46 82 46 21 0 421 266 511 340
17 14 42 34 55 44 13 11 49 41 79 67 82 69 207 139 251 139 20 0 49 4 65 9 16
5 56 17 89 26 85 25 237 99 325 159 165 113 221 174 350 386 41 67 90 130 136
175 88 87 171 186 219 260 41 64 89 161 98 197 4 12 45 88 92 168 253 427 425
891 496 1335 12 77 23 146 25 153 2 7 22 12 52 12 119 0 217 150 173 263 -6
16 -11 45 -11 66 0 43 49 149 92 199 66 77 85 160 52 238 -27 64 -101 161
-165 214 -66 55 -147 100 -178 100 -23 0 -22 -1 -49 142 l-19 97 46 33 c114
81 259 211 302 270 130 178 190 373 143 467 -27 54 -62 65 -191 58 -75 -3
-113 -2 -113 5 0 6 46 58 103 117 56 59 134 145 173 192 261 309 422 691 359
854 -30 80 -138 125 -263 109 -31 -4 -70 -8 -87 -9 -87 -5 -373 -76 -427 -105
-10 -6 -22 -10 -28 -10 -42 0 -385 -176 -574 -294 -93 -59 -173 -105 -176
-104 -4 2 -31 32 -61 68 -29 36 -90 106 -135 155 l-81 91 -8 79 c-16 179 -43
295 -90 390 -31 63 -66 90 -120 89 -52 0 -96 -22 -177 -89 -36 -30 -69 -55
-73 -55 -4 0 -44 26 -88 58 -529 378 -1184 622 -1867 694 -153 16 -594 16
-750 0 -252 -27 -539 -84 -763 -153 -55 -17 -100 -29 -101 -27 -1 2 -10 30
-20 63 -9 33 -21 69 -25 80 -78 186 -133 280 -204 341 -72 61 -112 76 -212 80
-49 1 -101 0 -115 -2z m149 -259 c16 -8 43 -29 60 -48 30 -31 101 -140 101
-155 1 -4 9 -25 20 -47 11 -22 19 -48 20 -57 0 -9 5 -20 10 -23 6 -3 10 -16
10 -29 0 -18 -14 -28 -77 -56 -367 -159 -734 -387 -1009 -627 -47 -41 -87 -73
-89 -71 -6 5 162 309 282 513 219 371 392 570 533 616 33 11 103 3 139 -16z
m2121 -250 c295 -36 610 -112 887 -215 260 -97 603 -277 817 -429 44 -31 84
-59 90 -63 7 -5 2 -17 -15 -34 l-26 -26 -84 60 c-416 296 -956 516 -1484 607
-222 38 -372 50 -630 50 -321 0 -532 -23 -835 -91 -97 -22 -298 -78 -350 -98
-11 -5 -18 4 -26 29 l-11 34 61 20 c265 87 558 144 906 175 106 9 571 -3 700
-19z m-1848 -286 c5 -30 2 -32 -56 -57 -324 -139 -647 -338 -925 -570 l-64
-54 -20 32 c-17 27 -18 32 -4 43 8 7 57 46 108 88 247 199 528 370 839 510
105 47 116 48 122 8z m1198 -155 c94 -24 217 -84 304 -148 42 -31 76 -60 76
-65 0 -4 -57 -11 -127 -15 -305 -17 -542 -94 -737 -241 -79 -59 -170 -157
-164 -175 1 -5 41 17 87 50 167 119 399 214 584 239 255 35 500 -5 734 -120
297 -146 498 -370 520 -580 7 -70 18 -72 51 -9 15 31 22 62 22 102 0 32 2 58
5 58 22 0 108 -56 138 -89 85 -94 112 -188 111 -386 0 -167 -21 -276 -72 -368
-49 -91 -199 -207 -384 -298 -158 -77 -155 -88 12 -43 112 30 298 118 357 168
22 20 44 36 47 36 3 0 6 -12 6 -27 0 -48 32 -197 53 -248 46 -112 130 -214
223 -271 17 -11 16 -12 -11 -19 -206 -52 -508 -366 -578 -602 -55 -184 -218
-361 -488 -531 -129 -81 -315 -155 -434 -172 -66 -10 -148 -3 -142 13 4 13 74
39 197 71 152 40 150 39 150 84 0 74 -31 78 -182 26 -171 -60 -505 -198 -633
-262 -134 -67 -259 -111 -385 -137 -67 -14 -118 -16 -240 -12 -134 4 -168 8
-256 34 -106 32 -217 78 -233 97 -7 8 32 11 142 11 93 0 173 5 207 13 203 50
390 141 630 308 394 274 946 480 1113 415 57 -22 197 -8 197 20 0 9 -15 14
-93 29 -78 16 -119 33 -199 87 -141 93 -248 233 -248 325 0 100 68 156 202
166 43 2 81 8 83 12 6 10 -98 30 -156 30 -120 0 -271 -60 -402 -159 -40 -30
-137 -113 -215 -185 -331 -302 -391 -351 -652 -538 -262 -187 -342 -229 -550
-291 -132 -40 -198 -51 -215 -37 -10 8 -12 18 -6 29 42 77 404 342 821 600
148 92 166 106 153 114 -13 8 -153 -51 -279 -118 -187 -100 -617 -368 -918
-572 -60 -40 -115 -72 -121 -70 -18 7 -43 105 -61 237 -24 174 -25 568 -1 698
20 109 47 172 91 208 30 26 33 27 143 21 117 -6 250 6 267 23 16 16 21 12 41
-41 41 -108 147 -187 280 -210 43 -7 114 -10 188 -6 134 6 173 22 81 32 -33 3
-79 13 -104 22 -46 17 -95 57 -86 72 3 5 38 12 78 15 404 39 798 165 1121 358
279 167 378 250 479 401 167 248 184 568 43 816 -54 97 -107 167 -181 243
-126 128 -243 178 -418 178 -544 -1 -1080 -524 -1267 -1237 -36 -139 -58 -193
-117 -291 -112 -186 -233 -258 -397 -237 -68 8 -78 21 -101 130 -13 62 -17
127 -17 288 0 115 -3 205 -7 200 -17 -18 -70 -264 -80 -368 -9 -91 -8 -130 5
-215 15 -104 15 -105 -6 -122 -34 -29 -59 -21 -109 30 -80 83 -177 314 -221
527 -28 137 -22 214 26 359 33 104 118 310 136 332 5 6 8 43 6 82 -1 38 1 73
5 77 4 4 17 0 30 -9 30 -21 54 -20 78 4 22 22 28 88 9 107 -19 19 -4 38 39 51
34 11 48 24 89 85 91 137 235 259 381 320 34 15 62 22 62 17 0 -5 -23 -40 -51
-77 -117 -157 -293 -489 -314 -594 -5 -26 3 -17 31 36 98 186 198 325 347 482
97 101 242 233 257 233 4 0 15 -51 24 -112 26 -171 35 -211 53 -230 21 -24 64
-23 96 2 44 35 50 111 28 355 l-8 100 26 23 c42 36 183 119 266 158 108 50
192 75 325 98 51 9 247 -4 310 -20z m2804 -234 c58 -69 80 -213 73 -470 -5
-201 -15 -273 -63 -450 -35 -129 -72 -193 -173 -302 -192 -208 -259 -290 -370
-455 -70 -105 -164 -286 -212 -409 -18 -46 -36 -84 -40 -84 -14 0 -105 77
-132 113 -51 67 -80 145 -85 227 -11 188 111 628 281 1009 260 587 596 969
721 821z m-2003 -40 c303 -61 614 -174 874 -317 105 -58 304 -185 366 -234
l37 -29 -42 -98 c-23 -53 -57 -137 -75 -187 -18 -49 -36 -97 -41 -105 -4 -9
-11 -31 -15 -50 -4 -19 -11 -39 -15 -45 -3 -5 -15 -37 -24 -70 -10 -33 -21
-71 -26 -85 -5 -14 -15 -50 -24 -80 -55 -193 -68 -231 -80 -219 -12 12 -6 140
10 204 27 107 24 338 -4 423 -56 164 -157 285 -301 360 -45 23 -87 42 -94 42
-7 0 -46 36 -85 79 -128 141 -303 267 -537 386 -60 30 -100 55 -89 55 10 0 85
-13 165 -30z m3838 -236 c45 -26 61 -64 61 -139 0 -159 -139 -441 -343 -695
-142 -177 -223 -256 -464 -455 -91 -75 -112 -105 -73 -105 10 0 91 29 179 65
242 98 337 106 387 30 15 -23 15 -31 4 -68 -28 -93 -103 -219 -201 -336 -94
-113 -309 -281 -359 -281 -13 0 -73 33 -134 74 -140 93 -211 131 -362 195
-170 71 -348 121 -433 121 -156 0 -275 -73 -447 -273 l-41 -48 -84 2 c-46 2
-109 -1 -139 -5 -82 -12 -87 -1 -44 104 193 476 614 943 1209 1341 506 338
1126 567 1284 473z m-7006 -79 l18 -25 -119 -128 c-66 -70 -146 -159 -179
-198 -32 -39 -73 -89 -90 -110 -40 -47 -34 -32 42 118 53 107 70 129 178 243
65 69 122 125 125 125 4 0 15 -12 25 -25z m5491 -319 l58 -70 -27 -24 c-15
-13 -31 -20 -35 -15 -133 155 -151 181 -146 220 2 21 5 41 5 45 1 9 65 -60
145 -156z m-3014 101 c231 -101 109 -350 -207 -421 -90 -20 -139 -20 -216 0
-181 47 -219 177 -89 304 99 97 228 142 382 136 55 -2 110 -10 130 -19z m435
-212 c77 -117 107 -200 113 -312 3 -68 0 -113 -13 -165 -20 -84 -84 -212 -148
-295 -54 -70 -210 -221 -292 -284 -97 -74 -125 -86 -55 -24 250 223 367 408
407 642 26 158 0 320 -79 481 -45 91 -44 90 -13 62 15 -14 51 -61 80 -105z
m-2910 -631 c-55 -215 -75 -350 -75 -511 0 -259 53 -415 186 -548 44 -44 95
-83 137 -104 55 -28 66 -38 61 -53 -10 -34 -13 -109 -13 -333 0 -224 0 -236
13 -315 25 -157 92 -340 118 -324 7 4 59 36 115 70 l101 63 51 -53 c75 -80
158 -149 234 -195 37 -23 71 -41 75 -41 4 0 19 -6 33 -14 14 -7 52 -21 85 -30
32 -10 77 -23 99 -29 45 -13 296 -16 363 -4 37 6 42 5 42 -12 0 -49 -133 -184
-238 -241 -98 -53 -191 -149 -242 -250 -82 -161 -82 -335 0 -473 16 -27 21
-46 16 -68 -24 -121 91 -255 287 -333 56 -23 154 -30 207 -16 81 22 136 23
187 4 26 -9 54 -22 61 -28 7 -5 41 -10 75 -10 123 -1 204 80 228 230 14 86 26
101 72 87 95 -29 183 -8 218 53 25 42 24 140 -1 199 l-20 47 50 56 c45 51 90
139 90 177 0 8 -9 39 -20 69 -25 64 -95 135 -167 166 -114 51 -117 56 -74 120
17 25 31 52 31 61 0 24 26 42 52 36 123 -27 194 -38 318 -51 296 -32 335 -36
355 -31 24 7 354 -20 440 -35 66 -12 133 -33 185 -58 38 -19 47 -41 49 -126 1
-38 -4 -54 -24 -78 -43 -50 -58 -127 -51 -244 l7 -101 -51 -59 c-116 -132
-140 -190 -140 -333 0 -67 7 -118 21 -166 30 -101 33 -124 21 -148 -28 -56
-45 -165 -44 -282 0 -109 3 -128 32 -205 17 -47 32 -91 33 -99 3 -26 -278
-105 -518 -146 -801 -136 -1629 54 -2299 528 -813 575 -1306 1527 -1306 2522
0 601 173 1182 503 1687 28 43 52 76 54 74 2 -2 -8 -48 -22 -102z m-829 -170
c-146 -331 -252 -727 -292 -1094 -37 -344 -17 -808 51 -1140 274 -1346 1259
-2426 2575 -2823 347 -105 674 -152 1065 -152 258 0 408 12 630 50 1441 247
2614 1332 2970 2746 37 148 85 408 85 460 0 34 1 34 42 13 30 -16 30 -17 24
-72 -3 -32 -11 -79 -16 -107 -5 -27 -19 -99 -31 -160 -70 -364 -245 -814 -453
-1160 -555 -923 -1471 -1569 -2516 -1774 -273 -53 -414 -66 -735 -66 -321 0
-462 13 -735 66 -868 170 -1665 654 -2221 1349 -468 586 -751 1295 -819 2050
-14 164 -12 500 5 670 34 345 112 679 236 1004 61 161 78 190 124 211 19 10
38 22 41 27 3 5 8 7 10 5 2 -2 -16 -49 -40 -103z m2489 -398 c96 -41 43 -116
-82 -116 -96 0 -157 44 -121 87 34 41 138 56 203 29z m3703 -1 c69 -14 182
-58 182 -70 0 -4 -13 -25 -29 -48 -80 -118 -141 -312 -141 -452 0 -30 -4 -55
-9 -55 -20 0 -72 77 -87 130 -13 44 -15 85 -11 200 3 80 7 154 9 164 5 31 -21
30 -51 -3 -48 -51 -66 -120 -66 -246 l0 -110 48 -95 c52 -104 54 -114 33 -164
-45 -108 -201 -196 -347 -196 -55 0 -61 -6 -83 -82 -43 -151 -199 -210 -350
-133 -123 62 -197 188 -212 360 -15 162 73 308 231 388 76 38 152 57 225 57
78 0 73 -4 191 147 91 117 166 187 224 207 53 19 157 20 243 1z m496 -184
c150 -77 271 -154 292 -187 20 -30 11 -45 -43 -74 -73 -39 -140 -111 -158
-172 -8 -28 -15 -63 -15 -76 0 -17 -4 -22 -14 -19 -8 3 -74 8 -148 12 -251 12
-274 29 -272 205 0 89 5 115 27 173 63 158 101 207 163 207 21 0 81 -25 168
-69z m426 -184 c-1 -21 -1 -21 -15 -3 -8 10 -12 23 -9 28 9 14 24 -2 24 -25z
m-3660 -25 c0 -21 4 -42 9 -47 5 -6 12 -23 15 -40 6 -28 3 -32 -44 -58 -57
-32 -56 -33 -63 58 -5 59 -4 61 32 92 20 18 39 32 44 33 4 0 7 -17 7 -38z
m3653 -129 c35 -40 95 -73 133 -73 71 0 239 -132 283 -223 37 -77 25 -207 -14
-153 -23 30 -41 5 -48 -63 -7 -77 -42 -153 -101 -219 -55 -60 -54 -79 1 -84
35 -3 38 -6 41 -34 4 -42 -20 -99 -52 -119 -14 -9 -43 -19 -65 -22 -55 -8
-137 33 -192 95 l-41 47 46 3 c37 3 46 7 46 22 0 21 -8 28 -125 102 -44 28
-108 73 -142 99 -35 27 -67 49 -73 49 -18 0 -11 -34 16 -73 14 -21 23 -41 20
-44 -10 -11 -127 20 -159 41 -83 56 -55 135 85 242 32 25 65 58 73 74 8 16 20
72 25 125 11 102 28 142 88 198 31 30 100 59 116 49 5 -3 23 -21 39 -39z
m-3825 -33 c12 -21 22 -43 22 -48 0 -10 -154 -112 -169 -112 -6 0 -9 23 -8 55
2 54 3 56 57 100 30 24 60 44 65 45 6 0 20 -18 33 -40z m266 -60 c14 -22 56
-71 92 -109 l65 -70 -38 -10 c-21 -6 -44 -11 -51 -11 -21 0 -346 -110 -356
-121 -6 -5 -16 -9 -23 -9 -19 0 -227 -102 -319 -156 -98 -58 -164 -102 -281
-191 -172 -129 -343 -199 -543 -224 -87 -10 -251 -6 -286 8 -23 8 -16 23 10
23 35 0 187 56 277 101 255 128 600 378 884 642 l62 58 17 -25 c25 -39 19 -59
-28 -96 -25 -19 -123 -98 -218 -175 -95 -78 -214 -170 -265 -205 -51 -36 -92
-68 -93 -72 0 -8 110 53 222 124 93 58 223 149 335 235 45 35 84 63 87 63 3 0
6 -7 6 -15 0 -8 5 -15 10 -15 6 0 10 11 10 25 0 21 17 37 101 91 55 37 104 63
108 58 4 -5 14 -29 21 -54 15 -51 18 -46 28 40 l7 62 60 33 c33 19 63 34 66
34 4 1 18 -17 33 -39z m2796 -135 l125 -21 8 -90 c15 -160 -4 -624 -29 -702
-6 -20 -143 105 -150 137 -15 66 -70 155 -140 230 -63 67 -90 87 -169 126 -52
26 -95 49 -95 51 0 2 17 12 38 23 74 38 153 135 181 223 17 50 45 70 80 56 14
-6 82 -21 151 -33z m-392 -394 c100 -51 183 -155 229 -288 25 -72 27 -90 27
-238 0 -203 -17 -293 -84 -430 -133 -275 -417 -459 -760 -494 -336 -33 -629
120 -666 348 -4 22 -5 41 -3 41 3 0 49 -12 104 -26 227 -58 445 -21 632 108
148 102 295 264 367 405 66 132 113 365 103 516 -3 45 -1 77 4 77 6 0 26 -9
47 -19z m-3044 -705 c63 -36 148 -73 214 -92 23 -7 13 -69 -18 -113 -46 -63
-55 -65 -228 -47 -259 27 -338 20 -407 -37 -36 -29 -44 -31 -127 -34 -48 -1
-88 1 -87 5 0 4 34 32 76 62 110 80 204 169 220 210 26 61 39 70 112 71 36 0
82 7 101 14 43 16 49 15 144 -39z m-30 -342 c219 -34 338 -79 387 -147 43 -59
36 -122 -19 -180 -51 -54 -57 -54 -121 6 -32 29 -88 69 -124 88 -62 32 -67 33
-83 17 -16 -16 -13 -20 39 -68 67 -61 93 -118 83 -182 -8 -53 -44 -128 -60
-128 -6 0 -28 11 -48 25 -39 26 -92 33 -104 13 -4 -6 15 -32 49 -62 72 -66 91
-104 89 -183 -1 -74 -29 -144 -67 -169 -32 -21 -89 -24 -108 -5 -10 10 -7 16
16 33 80 58 -28 90 -163 47 -173 -54 -349 -26 -449 73 -95 92 -95 167 -2 251
48 43 128 84 141 71 5 -5 2 -27 -7 -49 -42 -113 -42 -145 1 -145 42 0 111 113
157 256 28 87 30 221 4 308 -20 69 -13 96 37 126 28 17 51 20 142 20 60 0 154
-7 210 -16z m-487 -129 c7 -27 13 -89 13 -137 0 -102 -7 -111 -101 -122 -102
-12 -193 -68 -246 -151 -15 -25 -32 -44 -38 -42 -19 6 -44 102 -45 168 -1 207
134 343 334 336 l70 -2 13 -50z m-1862 -219 c50 -96 56 -115 52 -150 -7 -51
-36 -76 -87 -76 -31 0 -40 -4 -45 -22 -14 -46 -45 -68 -96 -68 -41 0 -51 4
-78 36 -34 38 -134 230 -129 245 2 6 71 45 153 89 115 60 153 76 162 67 6 -7
37 -61 68 -121z m6002 33 c92 -34 119 -134 57 -208 l-23 -28 40 -18 c22 -10
42 -22 45 -26 5 -8 -42 -109 -51 -109 -8 0 -289 141 -302 152 -10 8 -7 21 12
59 14 27 30 49 35 49 6 0 10 11 10 25 0 34 24 80 52 99 26 18 84 21 125 5z
m-3290 -218 c39 -57 23 -134 -32 -159 -31 -14 -105 1 -105 21 0 7 17 49 37 95
43 94 61 102 100 43z m3146 -106 c53 -33 96 -66 97 -73 0 -24 -51 -91 -66 -85
-10 4 -14 -4 -14 -31 0 -50 -50 -106 -94 -106 -36 0 -196 93 -196 113 0 10 36
72 56 96 2 2 33 -15 68 -38 68 -45 101 -50 101 -16 0 14 -20 33 -62 60 -34 22
-63 46 -63 53 0 20 52 93 65 90 6 -2 55 -30 108 -63z m-1796 -23 c34 -61 112
-141 197 -204 185 -138 441 -219 689 -219 48 0 87 -4 87 -9 0 -26 -308 -278
-473 -387 -111 -73 -105 -73 -212 -10 -280 162 -448 441 -406 675 14 78 63
192 83 192 7 0 23 -17 35 -38z m-4044 14 c79 -32 141 -149 117 -220 -13 -39
-75 -95 -89 -80 -5 5 -32 44 -59 87 -28 42 -53 73 -57 67 -11 -17 5 -51 29
-59 12 -5 35 -32 50 -61 l29 -53 -47 5 c-36 4 -56 14 -82 39 -95 92 -98 220
-6 268 44 24 72 26 115 7z m220 -265 c15 -22 27 -44 27 -49 0 -6 9 -14 20 -17
11 -4 27 -20 36 -36 l15 -30 36 31 c34 30 36 31 55 13 11 -10 29 -31 40 -46
l21 -29 -52 -52 c-56 -56 -54 -66 8 -66 19 0 41 -14 74 -48 26 -27 45 -50 43
-53 -3 -2 -34 -2 -69 1 l-64 5 -23 -92 c-12 -51 -25 -93 -29 -93 -4 0 -27 20
-51 45 l-43 44 12 42 c7 22 15 47 18 55 8 22 -31 17 -52 -6 -25 -28 -36 -25
-80 21 l-40 41 90 84 c89 83 89 83 52 77 -30 -5 -40 -2 -55 17 -21 26 -34 22
-111 -37 -24 -18 -47 -33 -50 -33 -10 0 -63 71 -65 86 -1 14 181 164 199 164
6 0 22 -18 38 -39z m5428 16 c68 -46 80 -130 29 -210 -37 -58 -82 -87 -136
-87 -89 0 -149 80 -125 168 32 121 148 186 232 129z m-257 -218 c16 -40 16
-42 -4 -61 -18 -17 -19 -21 -5 -47 8 -16 33 -43 55 -61 22 -17 40 -37 40 -43
-1 -12 -66 -87 -76 -87 -9 0 -184 164 -184 173 0 15 62 86 74 84 6 -1 12 8 14
20 3 21 45 63 62 63 4 0 15 -19 24 -41z m-220 -129 c34 -13 33 -23 -10 -76
-29 -35 -41 -43 -60 -38 -30 8 -74 -35 -74 -72 0 -32 68 -104 97 -104 24 0 69
33 84 62 16 30 4 33 -31 8 l-31 -22 -25 23 c-13 12 -24 28 -24 35 0 13 80 93
121 122 17 12 24 8 69 -40 27 -29 49 -61 50 -70 0 -34 -41 -109 -85 -154 -87
-86 -180 -105 -254 -49 -113 83 -118 205 -13 307 74 74 124 92 186 68z m-4593
-82 c52 -17 105 -64 129 -113 18 -37 20 -50 11 -82 -6 -22 -22 -49 -35 -62
l-24 -22 -73 66 c-54 49 -75 62 -77 50 -5 -21 16 -45 37 -45 9 0 35 -18 56
-40 33 -34 37 -42 25 -51 -24 -16 -88 -3 -132 27 -90 63 -121 148 -76 214 23
35 78 70 109 70 9 0 31 -5 50 -12z m315 -139 c22 -17 38 -35 37 -40 -6 -21
-206 -269 -217 -269 -7 0 -30 15 -52 34 l-39 33 104 137 c57 75 109 136 116
136 7 0 30 -14 51 -31z m3948 -284 c59 -92 71 -117 71 -152 0 -50 -32 -89
-110 -134 -59 -34 -102 -37 -139 -8 -34 27 -33 35 12 58 l37 20 -48 1 c-42 0
-54 5 -82 33 -36 36 -56 90 -48 131 8 38 57 84 98 92 19 3 35 10 35 15 0 13
73 60 89 57 8 -2 46 -52 85 -113z m-3831 89 c51 -26 106 -85 113 -120 7 -36
-9 -96 -30 -113 -10 -8 -31 1 -87 37 -104 67 -99 65 -99 48 0 -21 28 -46 53
-46 12 0 42 -16 66 -35 l43 -35 -26 -10 c-51 -19 -102 -6 -173 42 -90 61 -98
164 -17 227 33 26 110 28 157 5z m205 -130 l44 -26 -6 -52 c-4 -28 -10 -62
-13 -76 -5 -21 3 -17 51 30 l56 54 46 -24 c25 -14 47 -28 50 -31 3 -6 -66 -66
-209 -182 -71 -58 -107 -61 -184 -17 -51 29 -52 31 -41 58 18 43 23 44 59 23
19 -11 40 -17 46 -13 8 5 15 55 19 145 8 155 8 154 82 111z m3289 -46 c8 -7
35 -52 60 -101 47 -94 46 -91 1 -117 -62 -36 -66 -34 -103 40 -38 75 -45 83
-69 74 -23 -9 -20 -27 14 -94 17 -33 30 -66 30 -73 0 -13 -96 -65 -104 -56 -8
9 -117 231 -114 233 24 19 89 47 99 44 8 -3 22 6 33 20 38 48 114 63 153 30z
m-335 -107 c-15 -12 -15 -13 0 -8 9 3 21 0 26 -6 14 -19 92 -207 92 -223 0
-15 -85 -57 -103 -51 -8 2 -55 105 -98 214 -7 20 -3 26 29 43 20 12 28 18 17
14 -54 -18 -64 -17 -75 11 -16 43 -13 49 43 72 l52 21 17 -36 c16 -35 16 -38
0 -51z m-2466 33 l52 -17 -19 -55 c-10 -30 -19 -56 -19 -58 0 -6 93 -33 100
-29 4 2 13 25 20 50 7 25 16 48 20 50 6 4 130 -33 130 -39 0 -5 -111 -320
-115 -327 -6 -9 -125 29 -125 40 0 4 9 34 20 66 11 32 19 59 18 60 -19 11 -93
33 -98 30 -4 -3 -10 -15 -14 -28 -3 -13 -12 -40 -21 -59 l-15 -37 -60 21 c-33
11 -60 25 -60 32 0 10 42 136 105 314 3 8 11 11 18 9 6 -3 35 -13 63 -23z
m2365 -179 c31 -88 55 -163 53 -167 -6 -9 -104 -41 -110 -36 -2 3 -31 76 -63
164 -36 99 -55 163 -49 169 13 15 70 34 92 32 15 -2 31 -35 77 -162z m-1984
55 c41 -10 41 -11 33 -42 -5 -17 -11 -32 -13 -35 -8 -7 -109 21 -113 32 -3 6
0 24 6 39 7 19 15 26 28 22 9 -3 36 -10 59 -16z m1818 -74 c37 -24 31 -44 -20
-66 -37 -16 -50 -17 -65 -8 -28 18 -70 -4 -70 -37 0 -39 18 -65 45 -65 23 0
50 19 57 41 4 12 95 32 108 24 14 -9 -8 -67 -37 -97 -48 -51 -164 -73 -227
-43 -77 37 -94 156 -31 215 58 54 183 73 240 36z m-1808 -30 c7 -6 -46 -227
-57 -239 -6 -7 -58 2 -107 18 -8 3 -4 33 13 107 36 154 32 149 94 133 29 -8
54 -16 57 -19z m490 -30 l-5 -53 49 5 c115 11 141 -33 123 -207 l-7 -61 -51 0
c-28 0 -56 4 -62 8 -6 4 -10 42 -10 91 1 48 -3 86 -9 87 -27 9 -39 -17 -44
-93 l-6 -78 -59 3 c-33 1 -62 4 -64 7 -4 4 17 322 22 340 2 6 30 9 66 7 l63
-4 -6 -52z m657 40 c18 -7 42 -25 52 -39 19 -23 24 -24 65 -16 24 4 47 8 51 9
4 0 21 -27 39 -60 35 -63 48 -63 49 0 1 68 7 77 68 89 30 6 57 9 59 7 2 -2
-12 -79 -31 -171 -39 -184 -51 -207 -115 -225 -65 -18 -100 -13 -111 16 -17
44 -13 54 24 54 66 0 65 20 -11 127 -37 53 -70 100 -73 105 -3 4 -27 1 -52 -7
-41 -12 -48 -12 -59 1 -22 26 -46 35 -72 25 -26 -10 -48 -57 -42 -88 14 -67
17 -74 40 -83 35 -13 71 6 84 42 7 20 16 28 25 25 7 -3 35 -9 60 -12 45 -7 47
-9 41 -34 -17 -72 -78 -112 -179 -118 -90 -6 -149 21 -183 82 -43 77 -25 201
36 244 55 40 173 53 235 27z m-963 -46 c11 -6 47 -13 80 -15 33 -3 64 -7 68
-10 12 -7 -36 -265 -54 -292 -20 -30 -54 -43 -111 -43 -107 0 -184 42 -184
100 0 20 5 30 15 30 26 0 105 -24 105 -32 0 -4 9 -12 21 -18 23 -13 49 2 49
26 0 10 -14 14 -51 14 -45 0 -55 4 -85 34 -33 33 -38 49 -34 111 2 32 23 72
49 92 20 15 105 17 132 3z m1922 -394 c-106 -89 -499 -344 -511 -332 -3 4 4
16 15 29 12 12 48 64 82 114 l61 93 78 22 c42 12 124 39 182 59 127 45 129 45
93 15z"/>
<path d="M5467 7727 c148 -154 250 -323 296 -492 27 -102 29 -269 3 -365 -53
-205 -221 -430 -456 -612 -67 -52 -12 -28 86 38 471 315 635 675 468 1024 -65
136 -176 264 -347 401 -141 113 -155 115 -50 6z"/>
<path d="M3967 7664 c-9 -82 -78 -133 -209 -155 -43 -7 -78 -16 -78 -19 0 -16
85 -44 129 -43 80 1 178 68 215 148 21 43 20 57 -5 89 -30 39 -46 33 -52 -20z"/>
<path d="M2026 3517 c-15 -11 -16 -18 -8 -34 18 -33 38 -45 50 -31 7 9 5 22
-7 46 -15 29 -19 31 -35 19z"/>
<path d="M1901 3451 c-12 -8 -11 -15 6 -42 36 -63 72 -41 41 26 -12 26 -24 30
-47 16z"/>
<path d="M8034 3465 c-9 -22 3 -44 30 -56 50 -23 87 20 47 53 -28 22 -69 24
-77 3z"/>
<path d="M2130 3155 c0 -12 33 -55 41 -55 13 0 11 34 -3 48 -12 12 -38 17 -38
7z"/>
<path d="M7678 2909 c-24 -14 -22 -44 4 -69 25 -23 60 -26 78 -5 17 20 3 53
-30 70 -34 17 -30 17 -52 4z"/>
<path d="M2710 2481 c0 -5 12 -19 28 -31 24 -19 27 -20 30 -5 2 9 -2 22 -8 30
-14 17 -50 20 -50 6z"/>
<path d="M6817 2115 c-13 -13 -14 -21 -5 -40 14 -32 46 -42 67 -21 14 15 14
19 1 44 -19 32 -42 39 -63 17z"/>
<path d="M6912 1979 c-20 -25 -21 -30 -8 -35 20 -8 46 13 46 37 0 29 -13 28
-38 -2z"/>
<path d="M3105 2171 c-5 -9 44 -51 59 -51 12 0 6 29 -10 44 -17 18 -40 21 -49
7z"/>
<path d="M4385 1644 c-34 -34 3 -105 39 -75 23 19 20 68 -3 81 -15 7 -24 6
-36 -6z"/>
<path d="M7913 1873 c-31 -6 -73 -59 -73 -91 0 -45 34 -90 78 -103 127 -37
189 145 65 192 -25 9 -32 9 -70 2z m92 -38 c35 -34 33 -78 -4 -116 -36 -35
-70 -37 -107 -5 -21 18 -28 32 -28 61 0 74 88 112 139 60z"/>
<path d="M7910 1776 c0 -31 5 -56 10 -56 6 0 10 9 10 20 0 11 6 20 14 20 8 0
18 -9 21 -20 3 -11 13 -20 22 -20 11 0 13 5 8 18 -4 9 -8 33 -9 52 -1 33 -3
35 -38 38 l-38 3 0 -55z m48 23 c-2 -6 -8 -10 -13 -10 -5 0 -11 4 -13 10 -2 6
4 11 13 11 9 0 15 -5 13 -11z"/>
</g>
</svg>
